<mxfile host="app.diagrams.net" agent="Mozilla/5.0 (Windows NT 10.0; Win64; x64; rv:137.0) Gecko/20100101 Firefox/137.0" version="28.1.0">
  <diagram name="Página-1" id="G03CkZAJwKk-HV-nEweV">
    <mxGraphModel grid="1" page="1" gridSize="10" guides="1" tooltips="1" connect="1" arrows="1" fold="1" pageScale="1" pageWidth="827" pageHeight="1169" math="0" shadow="0">
      <root>
        <mxCell id="0" />
        <mxCell id="1" parent="0" />
        <mxCell id="Rk5GAGyZ7KptpBcwDOgF-7" value="" style="edgeStyle=orthogonalEdgeStyle;rounded=0;orthogonalLoop=1;jettySize=auto;html=1;" edge="1" parent="1" source="Rk5GAGyZ7KptpBcwDOgF-1" target="Rk5GAGyZ7KptpBcwDOgF-9">
          <mxGeometry relative="1" as="geometry" />
        </mxCell>
        <mxCell id="Rk5GAGyZ7KptpBcwDOgF-1" value="INTERNET" style="shape=mxgraph.networks2.icon;aspect=fixed;fillColor=#EDEDED;strokeColor=#000000;gradientColor=#5B6163;network2IconShadow=1;network2bgFillColor=none;network2Icon=mxgraph.networks2.cloud;network2IconYOffset=-0.08;network2IconW=1.0004;network2IconH=0.7222;" vertex="1" parent="1">
          <mxGeometry x="330" y="10" width="110.82" height="80" as="geometry" />
        </mxCell>
        <mxCell id="Rk5GAGyZ7KptpBcwDOgF-13" value="" style="rounded=0;orthogonalLoop=1;jettySize=auto;html=1;exitX=0.495;exitY=0.52;exitDx=0;exitDy=0;exitPerimeter=0;" edge="1" parent="1" source="Rk5GAGyZ7KptpBcwDOgF-2" target="Rk5GAGyZ7KptpBcwDOgF-11">
          <mxGeometry relative="1" as="geometry" />
        </mxCell>
        <mxCell id="FVb7WY84SwMxEHU1vC-Q-52" value="" style="edgeStyle=orthogonalEdgeStyle;rounded=0;orthogonalLoop=1;jettySize=auto;html=1;" edge="1" parent="1" source="Rk5GAGyZ7KptpBcwDOgF-2" target="Rk5GAGyZ7KptpBcwDOgF-15">
          <mxGeometry relative="1" as="geometry" />
        </mxCell>
        <mxCell id="Rk5GAGyZ7KptpBcwDOgF-2" value="" style="shape=mxgraph.networks2.icon;aspect=fixed;fillColor=#EDEDED;strokeColor=#000000;gradientColor=#5B6163;network2IconShadow=1;network2bgFillColor=none;network2Icon=mxgraph.networks2.firewall;network2IconXOffset=0.0001;network2IconYOffset=0.0001;network2IconW=1;network2IconH=0.608;" vertex="1" parent="1">
          <mxGeometry x="343.28999999999996" y="280" width="82.24" height="50" as="geometry" />
        </mxCell>
        <mxCell id="Rk5GAGyZ7KptpBcwDOgF-6" value="DMZ(Fedora Server 42)" style="shape=umlFrame;whiteSpace=wrap;html=1;pointerEvents=0;width=140;height=30;" vertex="1" parent="1">
          <mxGeometry x="430" y="510" width="550" height="390" as="geometry" />
        </mxCell>
        <mxCell id="FVb7WY84SwMxEHU1vC-Q-51" value="" style="edgeStyle=orthogonalEdgeStyle;rounded=0;orthogonalLoop=1;jettySize=auto;html=1;" edge="1" parent="1" source="Rk5GAGyZ7KptpBcwDOgF-2" target="FVb7WY84SwMxEHU1vC-Q-13">
          <mxGeometry relative="1" as="geometry">
            <mxPoint x="369.96551724137953" y="360" as="sourcePoint" />
            <Array as="points">
              <mxPoint x="384" y="745" />
            </Array>
          </mxGeometry>
        </mxCell>
        <mxCell id="Rk5GAGyZ7KptpBcwDOgF-9" value="&lt;div&gt;Interfaz:WAN&lt;/div&gt;&lt;div&gt;IP: 192.168.1.0&lt;/div&gt;&lt;div&gt;GW: 192.168.1.1&lt;/div&gt;&lt;div&gt;Máscara: 255.255.255.0&lt;/div&gt;" style="ellipse;whiteSpace=wrap;html=1;" vertex="1" parent="1">
          <mxGeometry x="300.40999999999997" y="110" width="170" height="80" as="geometry" />
        </mxCell>
        <mxCell id="Rk5GAGyZ7KptpBcwDOgF-14" value="" style="rounded=0;orthogonalLoop=1;jettySize=auto;html=1;" edge="1" parent="1" source="Rk5GAGyZ7KptpBcwDOgF-11" target="Rk5GAGyZ7KptpBcwDOgF-6">
          <mxGeometry relative="1" as="geometry" />
        </mxCell>
        <mxCell id="Rk5GAGyZ7KptpBcwDOgF-11" value="&lt;div&gt;Interfaz:DMZ&lt;/div&gt;&lt;div&gt;GW Router-Interfaz: 192.168.1.1 &lt;br&gt;&lt;/div&gt;&lt;div&gt;IP: 192.168.20.0&lt;/div&gt;&lt;div&gt;GW:192.168.20.1&lt;/div&gt;&lt;div&gt;Máscara: 255.255.255.0&lt;/div&gt;" style="ellipse;whiteSpace=wrap;html=1;" vertex="1" parent="1">
          <mxGeometry x="424.53" y="350" width="210" height="90" as="geometry" />
        </mxCell>
        <mxCell id="Rk5GAGyZ7KptpBcwDOgF-22" value="" style="edgeStyle=orthogonalEdgeStyle;rounded=0;orthogonalLoop=1;jettySize=auto;html=1;" edge="1" parent="1" source="Rk5GAGyZ7KptpBcwDOgF-15" target="Rk5GAGyZ7KptpBcwDOgF-17">
          <mxGeometry relative="1" as="geometry" />
        </mxCell>
        <mxCell id="Rk5GAGyZ7KptpBcwDOgF-15" value="&lt;div&gt;Interfaz: LAN&lt;/div&gt;&lt;div&gt;GW Router-Interfaz: 192.168.1.1 &lt;br&gt;&lt;/div&gt;&lt;div&gt;IP: 192.168.1.0&lt;/div&gt;&lt;div&gt;GW:192.168.1.1&lt;/div&gt;&lt;div&gt;Máscara: 255.255.255.0&lt;/div&gt;" style="ellipse;whiteSpace=wrap;html=1;" vertex="1" parent="1">
          <mxGeometry x="21.319999999999993" y="260" width="200" height="90" as="geometry" />
        </mxCell>
        <mxCell id="Rk5GAGyZ7KptpBcwDOgF-17" value="LAN" style="shape=umlFrame;whiteSpace=wrap;html=1;pointerEvents=0;" vertex="1" parent="1">
          <mxGeometry x="1.3200000000000003" y="490" width="240" height="160" as="geometry" />
        </mxCell>
        <mxCell id="Rk5GAGyZ7KptpBcwDOgF-19" value="" style="shape=mxgraph.networks2.icon;aspect=fixed;fillColor=#EDEDED;strokeColor=#000000;gradientColor=#5B6163;network2IconShadow=1;network2bgFillColor=none;network2Icon=mxgraph.networks2.desktop_pc;network2IconXOffset=-0.0034;network2IconYOffset=0.00035;network2IconW=0.453;network2IconH=0.9995;" vertex="1" parent="1">
          <mxGeometry x="109.99999999999999" y="500" width="22.650000000000002" height="49.975" as="geometry" />
        </mxCell>
        <mxCell id="Rk5GAGyZ7KptpBcwDOgF-20" value="&lt;div&gt;&lt;font style=&quot;font-size: 9px;&quot;&gt;Dispositivo: PC&lt;/font&gt;&lt;/div&gt;&lt;div&gt;&lt;font style=&quot;font-size: 9px;&quot;&gt;SO: Windows 11&lt;/font&gt;&lt;/div&gt;&lt;div&gt;&lt;font style=&quot;font-size: 9px;&quot;&gt;Nombre: DESKTOP-23MK43&lt;/font&gt;&lt;/div&gt;&lt;div&gt;&lt;font style=&quot;font-size: 9px;&quot;&gt;MAC: 11:22:33:AB:BA&lt;/font&gt;&lt;/div&gt;&lt;div&gt;&lt;font style=&quot;font-size: 9px;&quot;&gt;IP:192.168.1.9/24&lt;/font&gt;&lt;/div&gt;&lt;div&gt;&lt;font style=&quot;font-size: 9px;&quot;&gt;GW: 192.168.1.1&lt;/font&gt;&lt;/div&gt;" style="text;html=1;align=center;verticalAlign=middle;resizable=0;points=[];autosize=1;strokeColor=none;fillColor=none;" vertex="1" parent="1">
          <mxGeometry x="51.32999999999999" y="549.97" width="140" height="100" as="geometry" />
        </mxCell>
        <mxCell id="Rk5GAGyZ7KptpBcwDOgF-23" value="&#xa;&#xa;&#xa;&#xa;&#xa;&#xa;&#xa;&#xa;&#xa;Servidor: Base de Datos&#xa;Nombre: Planazo_mysql&#xa;IP: 192.168.110.0&#xa;GW: 192.168.110.1&#xa;Máscara: 255.255.255.0&#xa;PORT: 3306" style="fillColorStyles=neutralFill;neutralFill=#9DA6A8;shape=mxgraph.networks2.icon;aspect=fixed;fillColor=#EDEDED;strokeColor=#000000;gradientColor=#5B6163;network2IconShadow=1;network2bgFillColor=none;network2Icon=mxgraph.networks2.server;network2IconW=1.0001;network2IconH=0.5812;" vertex="1" parent="1">
          <mxGeometry x="870" y="740.94" width="50.005" height="29.060000000000002" as="geometry" />
        </mxCell>
        <mxCell id="Rk5GAGyZ7KptpBcwDOgF-24" value="&#xa;&#xa;&#xa;&#xa;&#xa;&#xa;&#xa;&#xa;&#xa;Servidor: FREEIPA&#xa;Nombre: Planazo_Samba&#xa;IP: 192.168.140.0&#xa;GW: 192.168.140.1&#xa;Máscara: 255.255.255.0&#xa;PORT: 143, 145" style="fillColorStyles=neutralFill;neutralFill=#9DA6A8;shape=mxgraph.networks2.icon;aspect=fixed;fillColor=#EDEDED;strokeColor=#000000;gradientColor=#5B6163;network2IconShadow=1;network2bgFillColor=none;network2Icon=mxgraph.networks2.server;network2IconW=1.0001;network2IconH=0.5812;fontSize=11;verticalAlign=middle;" vertex="1" parent="1">
          <mxGeometry x="690" y="740.94" width="50.005" height="29.060000000000002" as="geometry" />
        </mxCell>
        <mxCell id="Rk5GAGyZ7KptpBcwDOgF-25" value="&#xa;&#xa;&#xa;&#xa;&#xa;&#xa;&#xa;&#xa;&#xa;Servidor: Web-apache&#xa;Nombre: PlanazoIP: 192.168.100.0&#xa;GW: 192.168.100.1&#xa;Máscara: 255.255.255.0&#xa;PORT: 80" style="fillColorStyles=neutralFill;neutralFill=#9DA6A8;shape=mxgraph.networks2.icon;fillColor=#EDEDED;strokeColor=#000000;gradientColor=#5B6163;network2IconShadow=1;network2bgFillColor=none;network2Icon=mxgraph.networks2.server;network2IconW=1.0001;network2IconH=0.5812;" vertex="1" parent="1">
          <mxGeometry x="500" y="565" width="50.005" height="29.060000000000002" as="geometry" />
        </mxCell>
        <mxCell id="Rk5GAGyZ7KptpBcwDOgF-26" value="&#xa;&#xa;&#xa;&#xa;&#xa;&#xa;&#xa;&#xa;&#xa;Servidor: Respaldo&#xa;Nombre: Planazo_Respaldo&#xa;IP: 192.168.130.0&#xa;GW: 192.168.130.1&#xa;Máscara: 255.255.255.0&#xa;PORT: 587" style="fillColorStyles=neutralFill;neutralFill=#9DA6A8;shape=mxgraph.networks2.icon;aspect=fixed;fillColor=#EDEDED;strokeColor=#000000;gradientColor=#5B6163;network2IconShadow=1;network2bgFillColor=none;network2Icon=mxgraph.networks2.server;network2IconW=1.0001;network2IconH=0.5812;" vertex="1" parent="1">
          <mxGeometry x="870" y="564.9999999999999" width="50.005" height="29.060000000000002" as="geometry" />
        </mxCell>
        <mxCell id="Rk5GAGyZ7KptpBcwDOgF-27" value="&#xa;&#xa;&#xa;&#xa;&#xa;&#xa;&#xa;&#xa;&#xa;Servidor: WAF&#xa;Nombre: Planazo_Waf&#xa;IP: 192.168.150.0&#xa;GW: 192.168.150.1&#xa;Máscara: 255.255.255.0&#xa;PORT: 80, 443" style="fillColorStyles=neutralFill;neutralFill=#9DA6A8;shape=mxgraph.networks2.icon;aspect=fixed;fillColor=#EDEDED;strokeColor=#000000;gradientColor=#5B6163;network2IconShadow=1;network2bgFillColor=none;network2Icon=mxgraph.networks2.server;network2IconW=1.0001;network2IconH=0.5812;" vertex="1" parent="1">
          <mxGeometry x="502.91" y="739.06" width="53.24" height="30.94" as="geometry" />
        </mxCell>
        <mxCell id="FVb7WY84SwMxEHU1vC-Q-4" value="" style="edgeStyle=orthogonalEdgeStyle;rounded=0;orthogonalLoop=1;jettySize=auto;html=1;entryX=0.531;entryY=0.46;entryDx=0;entryDy=0;entryPerimeter=0;" edge="1" parent="1" source="Rk5GAGyZ7KptpBcwDOgF-9" target="FVb7WY84SwMxEHU1vC-Q-2">
          <mxGeometry relative="1" as="geometry">
            <mxPoint x="385" y="190" as="sourcePoint" />
            <mxPoint x="386" y="313" as="targetPoint" />
          </mxGeometry>
        </mxCell>
        <mxCell id="FVb7WY84SwMxEHU1vC-Q-7" value="" style="edgeStyle=orthogonalEdgeStyle;rounded=0;orthogonalLoop=1;jettySize=auto;html=1;" edge="1" parent="1" source="FVb7WY84SwMxEHU1vC-Q-2" target="Rk5GAGyZ7KptpBcwDOgF-2">
          <mxGeometry relative="1" as="geometry" />
        </mxCell>
        <mxCell id="FVb7WY84SwMxEHU1vC-Q-2" value="&#xa;&#xa;Router" style="fillColorStyles=neutralFill;neutralFill=#9DA6A8;shape=mxgraph.networks2.icon;aspect=fixed;fillColor=#EDEDED;strokeColor=#000000;gradientColor=#5B6163;network2IconShadow=1;network2bgFillColor=none;network2Icon=mxgraph.networks2.router;network2IconXOffset=0.0001;network2IconYOffset=-0.1142;network2IconW=1;network2IconH=0.5485;verticalAlign=top;" vertex="1" parent="1">
          <mxGeometry x="359.40999999999997" y="210" width="50" height="27.425" as="geometry" />
        </mxCell>
        <mxCell id="FVb7WY84SwMxEHU1vC-Q-8" value="&lt;div&gt;&lt;font style=&quot;font-size: 16px;&quot;&gt;DNS:&lt;/font&gt;&lt;/div&gt;&lt;div&gt;&lt;font style=&quot;font-size: 16px;&quot;&gt;&lt;br&gt;&lt;/font&gt;&lt;/div&gt;&lt;div&gt;8.8.8.8&lt;/div&gt;&lt;div&gt;8.8.4.4&lt;/div&gt;" style="rounded=0;whiteSpace=wrap;html=1;" vertex="1" parent="1">
          <mxGeometry x="30" y="110" width="210" height="110" as="geometry" />
        </mxCell>
        <mxCell id="FVb7WY84SwMxEHU1vC-Q-9" value="&lt;div&gt;REGLAS DEL FIREWALL-DMZ:&lt;/div&gt;&lt;div align=&quot;left&quot;&gt;&lt;b&gt;Origen Destino Puerto/Protocolo Acción&lt;/b&gt;&lt;/div&gt;&lt;div align=&quot;left&quot;&gt;&lt;br&gt;&lt;/div&gt;&lt;div align=&quot;left&quot;&gt;WAN &lt;span style=&quot;white-space: pre;&quot;&gt;&#x9;&lt;/span&gt;WebServer &lt;span style=&quot;white-space: pre;&quot;&gt;&#x9;&lt;/span&gt;80 &lt;span style=&quot;white-space: pre;&quot;&gt;&#x9;&lt;/span&gt;Permitir&lt;/div&gt;&lt;div align=&quot;left&quot;&gt;WebServer mysqldb&amp;nbsp; 5432&lt;span style=&quot;white-space: pre;&quot;&gt;&#x9;&lt;/span&gt;Permitir&lt;/div&gt;&lt;div align=&quot;left&quot;&gt;LAN &lt;span style=&quot;white-space: pre;&quot;&gt;&#x9;&lt;/span&gt;DMZ&lt;span style=&quot;white-space: pre;&quot;&gt;&#x9;&lt;/span&gt; &lt;span style=&quot;white-space: pre;&quot;&gt;&#x9;&lt;/span&gt;- &lt;span style=&quot;white-space: pre;&quot;&gt;&#x9;&lt;/span&gt;Permitir&lt;/div&gt;&lt;div align=&quot;left&quot;&gt;DMZ &lt;span style=&quot;white-space: pre;&quot;&gt;&#x9;&lt;/span&gt;LAN &lt;span style=&quot;white-space: pre;&quot;&gt;&#x9;&lt;/span&gt;&lt;span style=&quot;white-space: pre;&quot;&gt;&#x9;&lt;/span&gt;- &lt;span style=&quot;white-space: pre;&quot;&gt;&#x9;&lt;/span&gt;Denegar&lt;/div&gt;" style="rounded=0;whiteSpace=wrap;html=1;" vertex="1" parent="1">
          <mxGeometry x="550" y="90" width="250" height="130" as="geometry" />
        </mxCell>
        <mxCell id="FVb7WY84SwMxEHU1vC-Q-11" value="" style="edgeStyle=orthogonalEdgeStyle;rounded=0;orthogonalLoop=1;jettySize=auto;html=1;" edge="1" parent="1" source="FVb7WY84SwMxEHU1vC-Q-10" target="Rk5GAGyZ7KptpBcwDOgF-1">
          <mxGeometry relative="1" as="geometry" />
        </mxCell>
        <mxCell id="FVb7WY84SwMxEHU1vC-Q-10" value="&lt;div&gt;VPN&lt;/div&gt;&lt;div&gt;Opciones&lt;/div&gt;&lt;div&gt;&lt;br&gt;&lt;/div&gt;&lt;span data-huuid=&quot;12838696796256502135&quot;&gt;&lt;span&gt;OPNsense, IPFire, ClearOS y Untangle&lt;/span&gt;&lt;/span&gt;" style="ellipse;whiteSpace=wrap;html=1;" vertex="1" parent="1">
          <mxGeometry x="58.67" y="15" width="200" height="70" as="geometry" />
        </mxCell>
        <mxCell id="FVb7WY84SwMxEHU1vC-Q-12" value="VLAN 50 (Administradores)" style="shape=umlFrame;whiteSpace=wrap;html=1;pointerEvents=0;width=150;height=30;" vertex="1" parent="1">
          <mxGeometry x="-210" y="850" width="540" height="300" as="geometry" />
        </mxCell>
        <mxCell id="FVb7WY84SwMxEHU1vC-Q-16" value="" style="edgeStyle=orthogonalEdgeStyle;rounded=0;orthogonalLoop=1;jettySize=auto;html=1;" edge="1" parent="1" source="FVb7WY84SwMxEHU1vC-Q-13" target="FVb7WY84SwMxEHU1vC-Q-12">
          <mxGeometry relative="1" as="geometry" />
        </mxCell>
        <mxCell id="FVb7WY84SwMxEHU1vC-Q-13" value="&lt;div&gt;Interfaz: VLAN&lt;/div&gt;&lt;div&gt;GW Router-Interfaz: 192.168.1.1 &lt;br&gt;&lt;/div&gt;&lt;div&gt;IP: 192.168.50.0&lt;/div&gt;&lt;div&gt;GW:192.168.50.1&lt;/div&gt;&lt;div&gt;Máscara: 255.255.255.0&lt;/div&gt;" style="ellipse;whiteSpace=wrap;html=1;" vertex="1" parent="1">
          <mxGeometry x="-40" y="700.0000000000001" width="200" height="90" as="geometry" />
        </mxCell>
        <mxCell id="FVb7WY84SwMxEHU1vC-Q-23" value="&#xa;&#xa;&#xa;&#xa;&#xa;&#xa;&#xa;&#xa;&#xa;Servidor: AD&#xa;Nombre: Planazo_directory&#xa;IP: 192.168.120.0&#xa;GW: 192.168.120.1&#xa;Máscara: 255.255.255.0&#xa;PORT: 389" style="fillColorStyles=neutralFill;neutralFill=#9DA6A8;shape=mxgraph.networks2.icon;aspect=fixed;fillColor=#EDEDED;strokeColor=#000000;gradientColor=#5B6163;network2IconShadow=1;network2bgFillColor=none;network2Icon=mxgraph.networks2.server;network2IconW=1.0001;network2IconH=0.5812;" vertex="1" parent="1">
          <mxGeometry x="690" y="565" width="50.005" height="29.060000000000002" as="geometry" />
        </mxCell>
        <mxCell id="FVb7WY84SwMxEHU1vC-Q-36" value="" style="shape=mxgraph.networks2.icon;aspect=fixed;fillColor=#EDEDED;strokeColor=#000000;gradientColor=#5B6163;network2IconShadow=1;network2bgFillColor=none;network2Icon=mxgraph.networks2.desktop_pc;network2IconXOffset=-0.0034;network2IconYOffset=0.00035;network2IconW=0.453;network2IconH=0.9995;" vertex="1" parent="1">
          <mxGeometry x="-160" y="960" width="22.650000000000002" height="49.975" as="geometry" />
        </mxCell>
        <mxCell id="FVb7WY84SwMxEHU1vC-Q-37" value="" style="shape=mxgraph.networks2.icon;aspect=fixed;fillColor=#EDEDED;strokeColor=#000000;gradientColor=#5B6163;network2IconShadow=1;network2bgFillColor=none;network2Icon=mxgraph.networks2.desktop_pc;network2IconXOffset=-0.0034;network2IconYOffset=0.00035;network2IconW=0.453;network2IconH=0.9995;" vertex="1" parent="1">
          <mxGeometry x="-22.65" y="960.01" width="22.650000000000002" height="49.975" as="geometry" />
        </mxCell>
        <mxCell id="FVb7WY84SwMxEHU1vC-Q-38" value="" style="shape=mxgraph.networks2.icon;aspect=fixed;fillColor=#EDEDED;strokeColor=#000000;gradientColor=#5B6163;network2IconShadow=1;network2bgFillColor=none;network2Icon=mxgraph.networks2.desktop_pc;network2IconXOffset=-0.0034;network2IconYOffset=0.00035;network2IconW=0.453;network2IconH=0.9995;" vertex="1" parent="1">
          <mxGeometry x="110" y="960.01" width="22.650000000000002" height="49.975" as="geometry" />
        </mxCell>
        <mxCell id="FVb7WY84SwMxEHU1vC-Q-39" value="" style="shape=mxgraph.networks2.icon;aspect=fixed;fillColor=#EDEDED;strokeColor=#000000;gradientColor=#5B6163;network2IconShadow=1;network2bgFillColor=none;network2Icon=mxgraph.networks2.desktop_pc;network2IconXOffset=-0.0034;network2IconYOffset=0.00035;network2IconW=0.453;network2IconH=0.9995;" vertex="1" parent="1">
          <mxGeometry x="254.68" y="960.01" width="22.650000000000002" height="49.975" as="geometry" />
        </mxCell>
        <mxCell id="FVb7WY84SwMxEHU1vC-Q-40" value="&lt;div&gt;&lt;font style=&quot;font-size: 9px;&quot;&gt;Dispositivo: PCTrabajador1&lt;/font&gt;&lt;/div&gt;&lt;div&gt;&lt;font style=&quot;font-size: 9px;&quot;&gt;SO: Windows 10&lt;/font&gt;&lt;/div&gt;&lt;div&gt;&lt;font style=&quot;font-size: 9px;&quot;&gt;Nombre: DESKTOP-3467BNS&lt;/font&gt;&lt;/div&gt;&lt;div&gt;&lt;font style=&quot;font-size: 9px;&quot;&gt;MAC: 11:22:00:AB:BA&lt;/font&gt;&lt;/div&gt;&lt;div&gt;&lt;font style=&quot;font-size: 9px;&quot;&gt;IP:192.168.50.4/24&lt;/font&gt;&lt;/div&gt;&lt;div&gt;&lt;font style=&quot;font-size: 9px;&quot;&gt;GW: 192.168.50.1&lt;/font&gt;&lt;/div&gt;&lt;div&gt;&lt;font style=&quot;font-size: 9px;&quot;&gt;&lt;br&gt;&lt;/font&gt;&lt;/div&gt;" style="text;html=1;align=center;verticalAlign=middle;resizable=0;points=[];autosize=1;strokeColor=none;fillColor=none;" vertex="1" parent="1">
          <mxGeometry x="-218.67000000000002" y="1004.97" width="140" height="110" as="geometry" />
        </mxCell>
        <mxCell id="FVb7WY84SwMxEHU1vC-Q-42" value="&lt;div&gt;&lt;font style=&quot;font-size: 9px;&quot;&gt;Dispositivo: PCTrabajador2&lt;/font&gt;&lt;/div&gt;&lt;div&gt;&lt;font style=&quot;font-size: 9px;&quot;&gt;SO: Windows 10&lt;/font&gt;&lt;/div&gt;&lt;div&gt;&lt;font style=&quot;font-size: 9px;&quot;&gt;Nombre: DESKTOP-23SD32&lt;/font&gt;&lt;/div&gt;&lt;div&gt;&lt;font style=&quot;font-size: 9px;&quot;&gt;MAC: 11:22:01:BB:AA&lt;/font&gt;&lt;/div&gt;&lt;div&gt;&lt;font style=&quot;font-size: 9px;&quot;&gt;IP:192.168.50.5/24&lt;/font&gt;&lt;/div&gt;&lt;div&gt;&lt;font style=&quot;font-size: 9px;&quot;&gt;GW: 192.168.50.1&lt;/font&gt;&lt;/div&gt;&lt;div&gt;&lt;font style=&quot;font-size: 9px;&quot;&gt;&lt;br&gt;&lt;/font&gt;&lt;/div&gt;" style="text;html=1;align=center;verticalAlign=middle;resizable=0;points=[];autosize=1;strokeColor=none;fillColor=none;" vertex="1" parent="1">
          <mxGeometry x="-81.33" y="1004.97" width="140" height="110" as="geometry" />
        </mxCell>
        <mxCell id="FVb7WY84SwMxEHU1vC-Q-43" value="&lt;div&gt;&lt;font style=&quot;font-size: 9px;&quot;&gt;Dispositivo: PCTrabajador3&lt;/font&gt;&lt;/div&gt;&lt;div&gt;&lt;font style=&quot;font-size: 9px;&quot;&gt;SO: Windows 10&lt;/font&gt;&lt;/div&gt;&lt;div&gt;&lt;font style=&quot;font-size: 9px;&quot;&gt;Nombre: DESKTOP-57KML2&lt;/font&gt;&lt;/div&gt;&lt;div&gt;&lt;font style=&quot;font-size: 9px;&quot;&gt;MAC: 11:22:02:CC:EE&lt;/font&gt;&lt;/div&gt;&lt;div&gt;&lt;font style=&quot;font-size: 9px;&quot;&gt;IP:192.168.50.6/24&lt;/font&gt;&lt;/div&gt;&lt;div&gt;&lt;font style=&quot;font-size: 9px;&quot;&gt;GW: 192.168.50.1&lt;/font&gt;&lt;/div&gt;&lt;div&gt;&lt;font style=&quot;font-size: 9px;&quot;&gt;&lt;br&gt;&lt;/font&gt;&lt;/div&gt;" style="text;html=1;align=center;verticalAlign=middle;resizable=0;points=[];autosize=1;strokeColor=none;fillColor=none;" vertex="1" parent="1">
          <mxGeometry x="51.31999999999999" y="1004.97" width="140" height="110" as="geometry" />
        </mxCell>
        <mxCell id="FVb7WY84SwMxEHU1vC-Q-44" value="&lt;div&gt;&lt;font style=&quot;font-size: 9px;&quot;&gt;Dispositivo: PCTrabajador4&lt;/font&gt;&lt;/div&gt;&lt;div&gt;&lt;font style=&quot;font-size: 9px;&quot;&gt;SO: Windows 10&lt;/font&gt;&lt;/div&gt;&lt;div&gt;&lt;font style=&quot;font-size: 9px;&quot;&gt;Nombre: DESKTOP-YHB567&lt;/font&gt;&lt;/div&gt;&lt;div&gt;&lt;font style=&quot;font-size: 9px;&quot;&gt;MAC: 11:22:02:HH:FF&lt;/font&gt;&lt;/div&gt;&lt;div&gt;&lt;font style=&quot;font-size: 9px;&quot;&gt;IP:192.168.50.8/24&lt;/font&gt;&lt;/div&gt;&lt;div&gt;&lt;font style=&quot;font-size: 9px;&quot;&gt;GW: 192.168.50.1&lt;/font&gt;&lt;/div&gt;&lt;div&gt;&lt;font style=&quot;font-size: 9px;&quot;&gt;&lt;br&gt;&lt;/font&gt;&lt;/div&gt;" style="text;html=1;align=center;verticalAlign=middle;resizable=0;points=[];autosize=1;strokeColor=none;fillColor=none;" vertex="1" parent="1">
          <mxGeometry x="185" y="1004.98" width="140" height="110" as="geometry" />
        </mxCell>
        <mxCell id="FVb7WY84SwMxEHU1vC-Q-47" value="" style="edgeStyle=orthogonalEdgeStyle;rounded=0;orthogonalLoop=1;jettySize=auto;html=1;" edge="1" parent="1" source="FVb7WY84SwMxEHU1vC-Q-46" target="FVb7WY84SwMxEHU1vC-Q-38">
          <mxGeometry relative="1" as="geometry" />
        </mxCell>
        <mxCell id="FVb7WY84SwMxEHU1vC-Q-46" value="" style="image;html=1;image=img/lib/clip_art/networking/Switch_128x128.png" vertex="1" parent="1">
          <mxGeometry x="10" y="860" width="80" height="80" as="geometry" />
        </mxCell>
        <mxCell id="FVb7WY84SwMxEHU1vC-Q-48" value="" style="edgeStyle=orthogonalEdgeStyle;rounded=0;orthogonalLoop=1;jettySize=auto;html=1;" edge="1" parent="1" source="FVb7WY84SwMxEHU1vC-Q-46" target="FVb7WY84SwMxEHU1vC-Q-37">
          <mxGeometry relative="1" as="geometry">
            <mxPoint x="-10" y="970" as="sourcePoint" />
            <mxPoint x="21" y="1030" as="targetPoint" />
          </mxGeometry>
        </mxCell>
        <mxCell id="FVb7WY84SwMxEHU1vC-Q-49" value="" style="edgeStyle=orthogonalEdgeStyle;rounded=0;orthogonalLoop=1;jettySize=auto;html=1;" edge="1" parent="1" source="FVb7WY84SwMxEHU1vC-Q-46" target="FVb7WY84SwMxEHU1vC-Q-36">
          <mxGeometry relative="1" as="geometry">
            <mxPoint x="-130" y="950" as="sourcePoint" />
            <mxPoint x="-99" y="1010" as="targetPoint" />
          </mxGeometry>
        </mxCell>
        <mxCell id="FVb7WY84SwMxEHU1vC-Q-50" value="" style="edgeStyle=orthogonalEdgeStyle;rounded=0;orthogonalLoop=1;jettySize=auto;html=1;" edge="1" parent="1" source="FVb7WY84SwMxEHU1vC-Q-46" target="FVb7WY84SwMxEHU1vC-Q-39">
          <mxGeometry relative="1" as="geometry">
            <mxPoint x="190" y="910" as="sourcePoint" />
            <mxPoint x="221" y="970" as="targetPoint" />
          </mxGeometry>
        </mxCell>
      </root>
    </mxGraphModel>
  </diagram>
</mxfile>
